<?xml version="1.0" encoding="UTF-8"?>
<svg version="1.1" xmlns="http://www.w3.org/2000/svg" width="2000" height="770">
<path d="M0 0 C1.31067947 -0.00807175 2.62135895 -0.01614349 3.97175598 -0.02445984 C6.74785215 -0.03940703 9.52392372 -0.04927344 12.30004883 -0.05688477 C15.07567208 -0.06561113 17.8507726 -0.08617409 20.6262207 -0.1184082 C73.68746874 -0.72016612 125.40353456 11.46104262 173.33203125 34.23828125 C174.54125244 34.80603271 174.54125244 34.80603271 175.77490234 35.38525391 C196.59985127 45.21729273 216.0085044 57.31026969 234.33203125 71.23828125 C234.98026855 71.7295752 235.62850586 72.22086914 236.29638672 72.72705078 C243.06155188 77.88104985 249.60379209 83.19838035 255.85546875 88.97265625 C257.88607259 90.83030645 259.94605799 92.63069614 262.03125 94.42578125 C266.80123083 98.59033287 271.29547373 103.0097389 275.76953125 107.48828125 C276.61064453 108.3302002 277.45175781 109.17211914 278.31835938 110.03955078 C283.28629284 115.05677697 287.98627355 120.09467361 292.3203125 125.671875 C294.1878702 128.05437094 296.14641166 130.32884149 298.14550781 132.60107422 C312.38488068 148.92018491 323.53781982 167.54056826 334.33203125 186.23828125 C334.74678711 186.95290527 335.16154297 187.6675293 335.58886719 188.40380859 C338.00238196 192.60288747 340.22672272 196.87830109 342.33203125 201.23828125 C342.92564453 202.46297119 342.92564453 202.46297119 343.53125 203.71240234 C362.11825194 242.65161323 373.52573361 285.29038336 377.33203125 328.23828125 C377.44417969 329.43066406 377.55632813 330.62304688 377.671875 331.8515625 C383.91098799 411.42161991 362.93331681 493.01346813 318.33203125 559.23828125 C317.84379883 559.96450684 317.35556641 560.69073242 316.85253906 561.43896484 C307.18733943 575.70102771 296.50731712 589.04807617 284.75 601.63671875 C282.70216455 603.84004413 280.72326234 606.07709708 278.76953125 608.36328125 C272.2017256 615.92097148 264.94428401 622.7523312 257.33203125 629.23828125 C256.31555448 630.1292375 255.30000707 631.02125464 254.28515625 631.9140625 C203.84416169 676.05996259 141.8045634 704.13562656 75.95703125 715.48828125 C75.07974365 715.63966553 74.20245605 715.7910498 73.29858398 715.94702148 C54.98081591 718.90171572 36.80034922 719.6121557 18.26953125 719.55078125 C17.09783386 719.5486261 15.92613647 719.54647095 14.71893311 719.54425049 C-2.26172181 719.49412245 -18.8995374 719.15069301 -35.66796875 716.23828125 C-36.88419922 716.03428711 -38.10042969 715.83029297 -39.35351562 715.62011719 C-76.92677285 709.1958196 -112.87624964 697.86367812 -146.72753906 680.24316406 C-148.69738494 679.2230476 -150.67778107 678.22598467 -152.66015625 677.23046875 C-171.23256361 667.78942128 -188.42712911 656.25320069 -204.66796875 643.23828125 C-206.18777344 642.03751953 -206.18777344 642.03751953 -207.73828125 640.8125 C-213.68364211 636.04435446 -219.30912987 630.97923628 -224.890625 625.796875 C-227.1572733 623.70875315 -229.45129766 621.67821629 -231.79296875 619.67578125 C-238.57224466 613.78443545 -244.89138964 607.35598356 -250.71875 600.5234375 C-252.21844883 598.76527354 -253.74115891 597.02671875 -255.2734375 595.296875 C-303.20956289 540.9023623 -331.86311458 471.85537979 -340.66796875 400.23828125 C-340.75491501 399.53422653 -340.84186127 398.83017181 -340.93144226 398.1047821 C-341.7325342 390.99880071 -341.86135281 383.93535339 -341.90625 376.7890625 C-341.91604385 375.51027725 -341.92583771 374.231492 -341.93592834 372.91395569 C-341.96335169 368.79290666 -341.97461316 364.67191212 -341.98046875 360.55078125 C-341.98161934 359.85070198 -341.98276993 359.15062271 -341.98395538 358.42932892 C-342.00759904 337.75625075 -341.67973226 317.59324877 -337.66796875 297.23828125 C-337.45366211 296.07506348 -337.23935547 294.9118457 -337.01855469 293.71337891 C-325.87622148 233.72805229 -299.52774007 175.09778127 -259.18603516 129.02734375 C-258.01855856 127.65145625 -256.88039891 126.25065218 -255.75537109 124.83984375 C-250.31651553 118.02630553 -244.52017794 111.77890947 -238.33935547 105.64892578 C-236.79417497 104.11447909 -235.26000866 102.56960123 -233.7265625 101.0234375 C-227.3628824 94.65130816 -220.72474588 88.84673057 -213.66796875 83.23828125 C-212.64037324 82.37494712 -211.61697168 81.50654089 -210.6015625 80.62890625 C-158.62486104 36.05420765 -91.26796438 9.44174337 -23.66796875 1.23828125 C-22.97676437 1.15280533 -22.28556 1.06732941 -21.57341003 0.97926331 C-14.38214771 0.16635548 -7.23220036 0.04346271 0 0 Z M-28.66796875 84.23828125 C-29.51762207 84.74504395 -30.36727539 85.25180664 -31.24267578 85.77392578 C-42.99420227 92.84602804 -53.94905197 100.69180803 -64.66796875 109.23828125 C-65.6734375 110.02976562 -66.67890625 110.82125 -67.71484375 111.63671875 C-82.01067428 123.08164666 -95.96425859 135.91825409 -107.32519531 150.31323242 C-109.62174451 153.18056839 -111.99220098 155.96925909 -114.37890625 158.76171875 C-119.61203739 164.98238689 -124.20458055 171.57099498 -128.66796875 178.36328125 C-129.05671173 178.9512146 -129.44545471 179.53914795 -129.84597778 180.14489746 C-136.29724894 189.91510122 -142.36667993 199.79240282 -147.66796875 210.23828125 C-148.10657227 211.09244629 -148.54517578 211.94661133 -148.99707031 212.82666016 C-180.74818788 275.16402201 -190.33770149 347.1214631 -169.5703125 414.48388672 C-159.99157572 443.72287706 -144.53956974 470.19901719 -123.81640625 492.8671875 C-121.90569771 494.97591492 -120.06496727 497.1260823 -118.23046875 499.30078125 C-89.01308649 532.6634214 -43.8361207 552.31953156 -0.66796875 558.23828125 C0.26789063 558.37105469 1.20375 558.50382813 2.16796875 558.640625 C49.85741511 564.13168113 100.74726616 549.81782388 138.45703125 520.30078125 C179.93843735 486.25969084 207.23343148 440.11432167 213.14675903 386.27929688 C213.70830175 380.09316992 213.6765689 373.88204375 213.64453125 367.67578125 C213.64270844 366.93671539 213.64088562 366.19764954 213.63900757 365.43618774 C213.58700585 352.84245645 212.77131668 340.61957551 210.33203125 328.23828125 C210.16574219 327.36993652 209.99945312 326.5015918 209.828125 325.60693359 C200.88839844 280.35370665 174.51765244 243.65721381 136.59619141 218.06689453 C114.03604812 203.23417333 88.51231461 193.54557641 62.6484375 186.3046875 C61.91052979 186.09787354 61.17262207 185.89105957 60.41235352 185.67797852 C58.03415488 185.10042017 58.03415488 185.10042017 54.33203125 185.23828125 C53.15643378 144.61485771 67.52519341 107.22881616 95.17114258 77.54589844 C114.92923926 56.76672037 140.35971872 41.8600455 168.33203125 35.23828125 C168.33203125 34.90828125 168.33203125 34.57828125 168.33203125 34.23828125 C163.71374204 33.34253689 159.22196434 33.06469054 154.53125 33.03515625 C153.78647903 33.02809662 153.04170807 33.02103699 152.27436829 33.01376343 C87.95376182 32.54438862 26.46203837 51.31605095 -28.66796875 84.23828125 Z " fill="#EC1C24" transform="translate(341.66796875,-0.23828125)"/>
<path d="M0 0 C1.71583099 -0.00734872 3.43165705 -0.01593728 5.1474762 -0.02566528 C9.78814096 -0.04780658 14.42862776 -0.05081564 19.06933808 -0.04891777 C22.9532425 -0.04879772 26.8371097 -0.05737616 30.72100371 -0.06569529 C39.8898743 -0.08490317 49.05865387 -0.08782287 58.22753906 -0.08105469 C67.66331139 -0.07441722 77.09869249 -0.09727247 86.5343855 -0.13436842 C94.65615384 -0.16513155 102.77779676 -0.17641825 110.89962214 -0.1725316 C115.74129992 -0.17047077 120.5826732 -0.17583987 125.42429543 -0.20042419 C129.98078851 -0.22279813 134.53664857 -0.2207257 139.09314537 -0.20049667 C140.7571144 -0.19710526 142.42112694 -0.20209436 144.08503723 -0.21648026 C157.65716024 -0.32564617 168.26814916 2.23468474 178.82495117 11.25195312 C186.37199981 18.73161741 191.75567419 29.13734094 192.13270569 39.83052063 C192.13048508 41.13401962 192.12826447 42.43751862 192.12597656 43.78051758 C192.12612259 44.50301193 192.12626862 45.22550629 192.12641907 45.96989441 C192.12572539 48.34519509 192.11795863 50.72041623 192.11010742 53.09570312 C192.1082413 54.7476548 192.10681832 56.39960702 192.1058197 58.05155945 C192.10200978 62.3899998 192.09219256 66.72840643 192.08111572 71.0668335 C192.07086877 75.49767603 192.06631505 79.92852403 192.0612793 84.359375 C192.05056889 93.04623939 192.03351083 101.73307643 192.01245117 110.41992188 C181.67320555 106.97350667 171.85229623 102.10556238 162.01245117 97.41992188 C162.01245117 78.27992187 162.01245117 59.13992187 162.01245117 39.41992188 C101.95245117 39.41992188 41.89245117 39.41992188 -19.98754883 39.41992188 C-19.65754883 86.93992188 -19.32754883 134.45992188 -18.98754883 183.41992188 C-15.02754883 178.13992187 -11.06754883 172.85992187 -6.98754883 167.41992188 C-6.32754883 167.41992188 -5.66754883 167.41992188 -4.98754883 167.41992188 C-3.61035615 169.2692949 -2.31271107 171.17803743 -1.05004883 173.10742188 C8.24726798 186.93679834 18.96258393 199.69825796 34.01245117 207.41992188 C34.65698242 207.8040625 35.30151367 208.18820313 35.96557617 208.58398438 C38.30355004 209.63509027 39.46643877 209.84722466 42.01245117 209.41992188 C46.84714944 206.67233379 50.90106834 203.12369173 55.01245117 199.41992188 C55.64731445 198.84983398 56.28217773 198.27974609 56.9362793 197.69238281 C61.37038423 193.67879131 65.70561682 189.56923714 70.01245117 185.41992188 C70.80780273 184.66582031 71.6031543 183.91171875 72.42260742 183.13476562 C77.77327771 177.95429559 82.36801265 172.23097292 87.01245117 166.41992188 C87.94977659 165.28328587 88.88864287 164.14791918 89.82885742 163.01367188 C106.06165267 143.29840844 118.93332867 121.37799657 130.01245117 98.41992188 C130.34245117 97.75992188 130.67245117 97.09992188 131.01245117 96.41992188 C136.87357906 96.95085356 141.45519014 99.34845073 146.63354492 101.94335938 C147.56171524 102.40054352 148.48988556 102.85772766 149.44618225 103.32876587 C152.45094631 104.81050077 155.45035345 106.30276044 158.44995117 107.79492188 C160.51851489 108.81666007 162.58752649 109.837492 164.65698242 110.85742188 C167.70978866 112.36211313 170.76234097 113.86728909 173.81344604 115.37542725 C180.68967803 118.77423219 187.58296063 122.13080885 194.51245117 125.41992188 C196.22345712 126.23358004 197.93439485 127.04738167 199.64526367 127.86132812 C200.49378906 128.26496582 201.34231445 128.66860352 202.21655273 129.08447266 C207.94948105 131.82278194 213.66730279 134.59254404 219.38745117 137.35742188 C227.5147101 141.28469598 235.64326076 145.2091885 243.78051758 149.11572266 C245.83026196 150.09984478 247.87942891 151.08517059 249.92797852 152.07177734 C255.15163998 154.58417826 260.38748628 157.06557324 265.64526367 159.50585938 C267.24845459 160.2557312 267.24845459 160.2557312 268.8840332 161.02075195 C270.92529571 161.97447746 272.97040464 162.92002572 275.01977539 163.85620117 C276.3773999 164.49295776 276.3773999 164.49295776 277.76245117 165.14257812 C278.9612793 165.69570679 278.9612793 165.69570679 280.18432617 166.26000977 C282.01245117 167.41992188 282.01245117 167.41992188 283.01245117 170.41992188 C281.70424209 172.69320323 280.37935685 174.69851385 278.82495117 176.79492188 C278.37369873 177.41343018 277.92244629 178.03193848 277.45751953 178.66918945 C272.88165054 184.81124828 267.80435009 190.41428367 262.4753418 195.90576172 C261.10117628 197.32808724 259.75120962 198.77367965 258.40307617 200.22070312 C217.85110882 242.6773841 155.73556763 260.78617179 99.01245117 266.41992188 C97.4870874 266.57436768 97.4870874 266.57436768 95.9309082 266.73193359 C57.58535277 270.44052589 19.23718867 268.44357845 -18.98754883 264.41992188 C-19.31754883 294.77992188 -19.64754883 325.13992188 -19.98754883 356.41992188 C40.07245117 356.41992188 100.13245117 356.41992188 162.01245117 356.41992188 C162.01245117 326.71992188 162.01245117 297.01992188 162.01245117 266.41992188 C185.01245117 258.41992187 185.01245117 258.41992187 192.01245117 256.41992188 C192.10607618 277.83907167 192.1765192 299.2581875 192.21969986 320.67750072 C192.24028626 330.62385606 192.26833153 340.57008393 192.31420898 350.51635742 C192.3541972 359.19000616 192.37991247 367.86356252 192.38880515 376.53730088 C192.39399968 381.12595296 192.40612611 385.71434089 192.4353714 390.30290794 C192.46273034 394.63099679 192.47085527 398.95871528 192.4648819 403.2868824 C192.46597305 404.86658625 192.47380419 406.44630382 192.48927307 408.02593231 C192.63145681 423.30818839 189.89079674 435.98783334 179.13354492 447.41601562 C170.73520616 455.30536416 160.31452796 459.66143946 148.78410339 459.68061829 C148.09097418 459.68444383 147.39784496 459.68826938 146.68371183 459.69221085 C144.37939433 459.70246465 142.07532957 459.69856334 139.77099609 459.69458008 C138.11133088 459.69893084 136.45166768 459.7041152 134.79200745 459.71006775 C130.29600341 459.7234313 125.80008358 459.72403926 121.30406356 459.72150445 C117.54434643 459.72043273 113.78464619 459.72532335 110.02493268 459.73010987 C101.15056069 459.74119637 92.27623103 459.74164758 83.40185547 459.7355957 C74.26269724 459.72955881 65.12369309 459.74186167 55.98456115 459.76316577 C48.1244462 459.78081116 40.26438016 459.78677842 32.40424615 459.78352803 C27.71582207 459.78171938 23.02750785 459.78430934 18.33910179 459.79824257 C13.9272269 459.81086381 9.51559114 459.80883637 5.10371971 459.79583168 C3.49051837 459.79347551 1.87729997 459.79616597 0.26411819 459.8044548 C-15.20954658 459.87818751 -27.07436611 457.07897022 -38.73754883 446.29492188 C-50.56191928 433.82178065 -51.29819723 418.97522951 -51.21459961 402.66723633 C-51.21403433 401.10898343 -51.21435433 399.55073001 -51.21548462 397.99247742 C-51.21605459 393.79486797 -51.20435844 389.59737461 -51.1903367 385.39979196 C-51.17776951 381.00092434 -51.17665415 376.60205358 -51.17428589 372.20317078 C-51.16808863 363.88784254 -51.15170173 355.57256736 -51.13158691 347.25726241 C-51.10917309 337.78440179 -51.09822073 328.31153854 -51.08819604 318.83865798 C-51.06733381 299.36571594 -51.0321922 279.89282319 -50.98754883 260.41992188 C-54.91698624 259.62961069 -58.84676981 258.84103345 -62.77661133 258.05273438 C-63.87368408 257.83206299 -64.97075684 257.6113916 -66.10107422 257.3840332 C-72.33795016 256.13389528 -78.57954646 254.91947108 -84.83441162 253.76257324 C-91.70704278 252.49128332 -98.48003582 251.16536288 -105.19458008 249.20117188 C-108.91291301 248.16107875 -112.66455235 247.29309963 -116.42504883 246.41992188 C-117.88208181 246.07878344 -119.33911308 245.7376377 -120.79614258 245.39648438 C-123.43276876 244.7805685 -126.07073918 244.17214066 -128.71020508 243.56835938 C-129.79172852 243.313125 -130.87325195 243.05789062 -131.98754883 242.79492188 C-132.93629883 242.57578125 -133.88504883 242.35664063 -134.86254883 242.13085938 C-136.98754883 241.41992188 -136.98754883 241.41992188 -137.98754883 239.41992188 C-137.097854 239.43563232 -137.097854 239.43563232 -136.19018555 239.45166016 C-106.55505582 239.90476162 -78.70500086 234.44170861 -54.81958008 215.72070312 C-52.98754883 214.41992188 -52.98754883 214.41992188 -50.98754883 214.41992188 C-50.98939241 213.53846591 -50.991236 212.65700994 -50.99313545 211.74884319 C-51.03735909 190.27279106 -51.07042709 168.79674681 -51.09117317 147.32065868 C-51.10147321 136.93486582 -51.11550919 126.5491034 -51.13842773 116.16333008 C-51.15840059 107.10808536 -51.17127451 98.0528627 -51.17572582 88.99759656 C-51.1783266 84.2056523 -51.184413 79.41377114 -51.19900894 74.62184715 C-51.21265445 70.10506013 -51.21675746 65.58836177 -51.21376419 61.07155609 C-51.21431125 59.42007527 -51.21824696 57.76859127 -51.22595978 56.11712837 C-51.29855291 39.76162138 -49.93838455 24.28507066 -38.05004883 11.85742188 C-26.42704907 1.39672209 -15.11202848 -0.03065168 0 0 Z M53.01245117 384.41992188 C52.81288147 386.9774264 52.73258291 389.42430328 52.74682617 391.98242188 C52.74491272 392.72951416 52.74299927 393.47660645 52.74102783 394.24633789 C52.73966619 395.82666358 52.74336118 397.40700046 52.75170898 398.98730469 C52.76240917 401.4104111 52.75181338 403.83277611 52.73901367 406.25585938 C52.74033527 407.78971518 52.74289767 409.32357053 52.74682617 410.85742188 C52.74277771 411.58453369 52.73872925 412.31164551 52.73455811 413.06079102 C52.64513615 417.1946182 52.64513615 417.1946182 55.01245117 420.41992188 C57.4981166 420.61940744 59.86995867 420.6998193 62.35620117 420.68554688 C63.44354553 420.68841705 63.44354553 420.68841705 64.55285645 420.69134521 C66.08610379 420.69270674 67.61936267 420.68901251 69.15258789 420.68066406 C71.50327376 420.66996365 73.8531954 420.68055996 76.20385742 420.69335938 C77.69214036 420.69203777 79.18042283 420.68947537 80.66870117 420.68554688 C81.37393921 420.68959534 82.07917725 420.6936438 82.80578613 420.69781494 C86.85846804 420.77269584 86.85846804 420.77269584 90.01245117 418.41992188 C90.21202087 415.86241735 90.29231944 413.41554047 90.27807617 410.85742188 C90.27998962 410.11032959 90.28190308 409.3632373 90.28387451 408.59350586 C90.28523615 407.01318017 90.28154117 405.43284329 90.27319336 403.85253906 C90.26249317 401.42943265 90.27308896 399.00706764 90.28588867 396.58398438 C90.28456707 395.05012857 90.28200467 393.51627322 90.27807617 391.98242188 C90.28212463 391.25531006 90.2861731 390.52819824 90.29034424 389.77905273 C90.37976619 385.64522555 90.37976619 385.64522555 88.01245117 382.41992188 C85.52678574 382.22043631 83.15494368 382.14002445 80.66870117 382.15429688 C79.58135681 382.1514267 79.58135681 382.1514267 78.4720459 382.14849854 C76.93879855 382.14713701 75.40553967 382.15083124 73.87231445 382.15917969 C71.52162858 382.1698801 69.17170694 382.15928379 66.82104492 382.14648438 C65.33276198 382.14780598 63.84447952 382.15036838 62.35620117 382.15429688 C61.65096313 382.15024841 60.9457251 382.14619995 60.21911621 382.14202881 C56.1664343 382.06714791 56.1664343 382.06714791 53.01245117 384.41992188 Z M6.01245117 392.41992188 C5.92593506 393.83562311 5.90540213 395.25551688 5.91479492 396.67382812 C5.91729248 397.44283447 5.91979004 398.21184082 5.92236328 399.00415039 C5.93146729 399.98697998 5.94057129 400.96980957 5.94995117 401.98242188 C5.97057617 405.09679687 5.99120117 408.21117187 6.01245117 411.41992188 C12.61245117 411.41992188 19.21245117 411.41992188 26.01245117 411.41992188 C26.03307617 408.30554688 26.05370117 405.19117188 26.07495117 401.98242188 C26.08405518 400.99959229 26.09315918 400.0167627 26.10253906 399.00415039 C26.10503662 398.23514404 26.10753418 397.4661377 26.11010742 396.67382812 C26.11534424 395.88306885 26.12058105 395.09230957 26.12597656 394.27758789 C26.21741026 392.40399499 26.21741026 392.40399499 25.01245117 391.41992188 C23.68201492 391.32154978 22.34651773 391.28913595 21.01245117 391.28710938 C20.20807617 391.28582031 19.40370117 391.28453125 18.57495117 391.28320312 C17.72932617 391.28707031 16.88370117 391.2909375 16.01245117 391.29492188 C15.16682617 391.29105469 14.32120117 391.2871875 13.44995117 391.28320312 C12.64557617 391.28449219 11.84120117 391.28578125 11.01245117 391.28710938 C9.89870117 391.28880127 9.89870117 391.28880127 8.76245117 391.29052734 C6.98419306 391.23049972 6.98419306 391.23049972 6.01245117 392.41992188 Z M118.01245117 392.41992188 C117.92593506 393.83562311 117.90540213 395.25551688 117.91479492 396.67382812 C117.91801758 397.52783203 117.92124023 398.38183594 117.92456055 399.26171875 C117.93293945 400.15955078 117.94131836 401.05738281 117.94995117 401.98242188 C117.95446289 402.88412109 117.95897461 403.78582031 117.96362305 404.71484375 C117.97544893 406.94993501 117.99192897 409.18489624 118.01245117 411.41992188 C121.15826541 411.44880702 124.30404586 411.46668111 127.44995117 411.48242188 C128.3477832 411.49080078 129.24561523 411.49917969 130.1706543 411.5078125 C131.45166016 411.51264648 131.45166016 411.51264648 132.75854492 411.51757812 C133.5493042 411.52281494 134.34006348 411.52805176 135.15478516 411.53344727 C137.02837806 411.62488097 137.02837806 411.62488097 138.01245117 410.41992188 C138.11082327 409.08948563 138.1432371 407.75398843 138.14526367 406.41992188 C138.14655273 405.61554688 138.1478418 404.81117188 138.14916992 403.98242188 C138.14336914 402.71398437 138.14336914 402.71398437 138.13745117 401.41992188 C138.14131836 400.57429688 138.14518555 399.72867187 138.14916992 398.85742188 C138.14723633 397.65085937 138.14723633 397.65085937 138.14526367 396.41992188 C138.14413574 395.67742187 138.14300781 394.93492187 138.1418457 394.16992188 C138.20187333 392.39166376 138.20187333 392.39166376 137.01245117 391.41992188 C135.68201492 391.32154978 134.34651773 391.28913595 133.01245117 391.28710938 C132.20807617 391.28582031 131.40370117 391.28453125 130.57495117 391.28320312 C129.72932617 391.28707031 128.88370117 391.2909375 128.01245117 391.29492188 C127.16682617 391.29105469 126.32120117 391.2871875 125.44995117 391.28320312 C124.64557617 391.28449219 123.84120117 391.28578125 123.01245117 391.28710938 C121.89870117 391.28880127 121.89870117 391.28880127 120.76245117 391.29052734 C118.98419306 391.23049972 118.98419306 391.23049972 118.01245117 392.41992188 Z " fill="#EC1C24" transform="translate(1464.987548828125,-0.419921875)"/>
<path d="M0 0 C5.86112789 0.53093169 10.44273897 2.92852886 15.62109375 5.5234375 C17.01334923 6.20921371 17.01334923 6.20921371 18.43373108 6.90884399 C21.43849514 8.3905789 24.43790228 9.88283856 27.4375 11.375 C29.50606372 12.3967382 31.57507532 13.41757012 33.64453125 14.4375 C36.69733749 15.94219125 39.74988979 17.44736722 42.80099487 18.95550537 C49.67722686 22.35431032 56.57050946 25.71088698 63.5 29 C65.21100595 29.81365816 66.92194368 30.6274598 68.6328125 31.44140625 C69.48133789 31.84504395 70.32986328 32.24868164 71.20410156 32.66455078 C76.93702988 35.40286006 82.65485162 38.17262217 88.375 40.9375 C96.50225893 44.8647741 104.63080959 48.78926663 112.76806641 52.69580078 C114.81781078 53.6799229 116.86697774 54.66524871 118.91552734 55.65185547 C124.1391888 58.16425639 129.37503511 60.64565136 134.6328125 63.0859375 C135.70160645 63.58585205 136.77040039 64.0857666 137.87158203 64.60083008 C139.91284453 65.55455558 141.95795347 66.50010385 144.00732422 67.4362793 C144.91240723 67.86078369 145.81749023 68.28528809 146.75 68.72265625 C147.54921875 69.09140869 148.3484375 69.46016113 149.171875 69.84008789 C151 71 151 71 152 74 C150.69179092 76.27328135 149.36690567 78.27859198 147.8125 80.375 C147.36124756 80.9935083 146.90999512 81.6120166 146.44506836 82.24926758 C141.86919936 88.39132641 136.79189891 93.99436179 131.46289062 99.48583984 C130.08872511 100.90816536 128.73875845 102.35375777 127.390625 103.80078125 C86.83865765 146.25746222 24.72311645 164.36624992 -32 170 C-33.52536377 170.1544458 -33.52536377 170.1544458 -35.08154297 170.31201172 C-127.49955191 179.25022404 -127.49955191 179.25022404 -152 167 C-152.13931862 157.09879491 -152.24578203 147.19782484 -152.31087303 137.2958374 C-152.34212155 132.6973598 -152.38447441 128.09955518 -152.45263672 123.50146484 C-152.51806269 119.05992059 -152.55375474 114.6190216 -152.56926346 110.17703247 C-152.58030838 108.48656055 -152.60187717 106.79612202 -152.63438034 105.10592651 C-152.93022576 89.07712578 -152.93022576 89.07712578 -147.51315308 83.44165039 C-147.01381256 82.96590576 -146.51447205 82.49016113 -146 82 C-143.90190682 79.04819994 -141.81331714 76.09031282 -139.734375 73.125 C-139.16203125 72.42375 -138.5896875 71.7225 -138 71 C-137.34 71 -136.68 71 -136 71 C-134.62280732 72.84937303 -133.32516225 74.75811556 -132.0625 76.6875 C-122.76518319 90.51687647 -112.04986725 103.27833609 -97 111 C-96.03320312 111.57621094 -96.03320312 111.57621094 -95.046875 112.1640625 C-92.70890113 113.2151684 -91.5460124 113.42730278 -89 113 C-84.16530173 110.25241191 -80.11138283 106.70376985 -76 103 C-75.04770508 102.14486816 -75.04770508 102.14486816 -74.07617188 101.27246094 C-69.64206694 97.25886943 -65.30683435 93.14931526 -61 89 C-59.80697266 87.86884766 -59.80697266 87.86884766 -58.58984375 86.71484375 C-53.23917346 81.53437371 -48.64443852 75.81105104 -44 70 C-43.06267458 68.86336399 -42.1238083 67.72799731 -41.18359375 66.59375 C-24.9507985 46.87848656 -12.0791225 24.9580747 -1 2 C-0.67 1.34 -0.34 0.68 0 0 Z " fill="#5EA644" transform="translate(1596,96)"/>
<path d="M0 0 C5.50827105 1.54853833 10.29795913 -0.04136996 15.48046875 -2.08203125 C38.09409717 -10.59684905 64.92190599 -8.7781413 86.86328125 1.12890625 C100.41234287 7.96004874 110.31057392 18.68712651 116 32.66796875 C118.44955737 40.15425645 119.33329303 47.1038874 119.27001953 54.96508789 C119.27031158 55.93200562 119.27060364 56.89892334 119.27090454 57.8951416 C119.26952196 61.06039712 119.25401153 64.22541109 119.23828125 67.390625 C119.23454731 69.59736503 119.23170214 71.80410672 119.22970581 74.010849 C119.22209938 79.79597618 119.20247672 85.58100165 119.18029785 91.36608887 C119.15977482 97.27855046 119.15069032 103.19102862 119.140625 109.10351562 C119.11922788 120.6875517 119.08407025 132.27148582 119.04296875 143.85546875 C105.18296875 143.85546875 91.32296875 143.85546875 77.04296875 143.85546875 C76.98689453 134.53554688 76.98689453 134.53554688 76.9296875 125.02734375 C76.89938192 121.07158779 76.86821711 117.11587542 76.83398438 113.16015625 C76.77982886 106.89292704 76.72871269 100.62578404 76.6965332 94.35839844 C76.67036504 89.30077812 76.62986862 84.24345026 76.57978249 79.18601227 C76.56320465 77.26453564 76.5516342 75.34300853 76.54535484 73.42147064 C76.87374722 53.28589368 76.87374722 53.28589368 68.04296875 35.85546875 C62.35382328 31.45060562 56.10338374 29.67488098 49.04296875 28.85546875 C48.32496094 28.77167969 47.60695313 28.68789063 46.8671875 28.6015625 C39.87992793 28.20557521 33.57164769 30.59515332 27.04296875 32.85546875 C27.20562729 33.63262238 27.36828583 34.409776 27.53587341 35.21047974 C28.18673847 39.88888201 28.17415612 44.45798488 28.15649414 49.17529297 C28.15664017 50.20029404 28.15678619 51.2252951 28.15693665 52.28135681 C28.15624191 55.65764508 28.14847004 59.03387766 28.140625 62.41015625 C28.13875926 64.75570648 28.13733609 67.1012571 28.13633728 69.44680786 C28.13252437 75.61170533 28.12270455 81.77657914 28.1116333 87.94146729 C28.10139282 94.23571452 28.09683401 100.52996558 28.09179688 106.82421875 C28.08108118 119.1679808 28.0634943 131.5117191 28.04296875 143.85546875 C14.51296875 143.85546875 0.98296875 143.85546875 -12.95703125 143.85546875 C-12.99441406 137.40242187 -13.03179688 130.949375 -13.0703125 124.30078125 C-13.10060815 120.19919265 -13.13176651 116.0976466 -13.16601562 111.99609375 C-13.22022965 105.49383757 -13.27134403 98.99166556 -13.3034668 92.48925781 C-13.32958151 87.24361932 -13.37004148 81.99826537 -13.42021751 76.7528038 C-13.4368311 74.75710479 -13.44837953 72.76135662 -13.45464516 70.7655983 C-13.4643464 67.9581788 -13.49247679 65.15147829 -13.5246582 62.34423828 C-13.52322311 61.52927383 -13.52178802 60.71430939 -13.52030945 59.87464905 C-13.6718189 50.45605506 -16.0825243 41.58967964 -22.95703125 34.85546875 C-30.69586939 29.2635341 -40.69624177 28.34098045 -49.95703125 28.85546875 C-53.25703125 29.51546875 -56.55703125 30.17546875 -59.95703125 30.85546875 C-59.95703125 68.14546875 -59.95703125 105.43546875 -59.95703125 143.85546875 C-73.81703125 143.85546875 -87.67703125 143.85546875 -101.95703125 143.85546875 C-102.13761733 126.07920048 -102.28498376 108.30371476 -102.37152863 90.52678394 C-102.41278094 82.2726489 -102.46902078 74.01912416 -102.56054688 65.76538086 C-102.64028328 58.57139182 -102.69189621 51.37784473 -102.70973921 44.18342608 C-102.72017002 40.37371435 -102.74467946 36.56526691 -102.8028717 32.75596046 C-102.85721524 29.16950501 -102.8739177 25.58483298 -102.8618927 21.99800491 C-102.86514004 20.05569444 -102.9081745 18.11357798 -102.95239258 16.17176819 C-102.87332576 7.83456293 -102.87332576 7.83456293 -100.19985294 4.9778595 C-98.15423947 3.6724235 -96.22006625 2.71859318 -93.95703125 1.85546875 C-93.16031006 1.47181152 -92.36358887 1.0881543 -91.54272461 0.69287109 C-90.88409424 0.4448877 -90.22546387 0.1969043 -89.546875 -0.05859375 C-88.7935791 -0.343396 -88.0402832 -0.62819824 -87.26416016 -0.92163086 C-58.91481607 -11.06559047 -28.06816603 -11.88974486 0 0 Z " fill="#EC1C24" transform="translate(1191.95703125,569.14453125)"/>
<path d="M0 0 C1.23216751 -0.01164688 1.23216751 -0.01164688 2.48922729 -0.02352905 C25.9328784 -0.19842264 49.10662814 4.40885445 66.65625 21.09765625 C67.4090625 21.84917969 68.161875 22.60070312 68.9375 23.375 C69.5871875 24.01308594 70.236875 24.65117188 70.90625 25.30859375 C87.02998183 42.3163021 87.6801869 65.94621072 87.10791016 87.93798828 C86.18965707 106.45828481 76.84359789 123.77450205 63.70703125 136.54296875 C46.90562228 151.09293264 25.65362323 155.73281236 3.9375 154.375 C-3.32118806 153.53781291 -10.26339743 152.09464103 -17.0625 149.375 C-17.0625 169.175 -17.0625 188.975 -17.0625 209.375 C-30.9225 209.375 -44.7825 209.375 -59.0625 209.375 C-59.0625 142.385 -59.0625 75.395 -59.0625 6.375 C-39.13122521 2.10401255 -20.28753783 0.08748056 0 0 Z M-17.0625 36.375 C-17.0625 61.785 -17.0625 87.195 -17.0625 113.375 C-4.79709907 118.8262893 9.21775426 122.58649235 22.4375 117.75 C31.82010461 113.27617528 36.82658386 106.41549443 40.9765625 97.0234375 C43.11387966 90.73133559 43.23988912 84.39415765 43.3125 77.8125 C43.32651855 76.93811279 43.34053711 76.06372559 43.35498047 75.1628418 C43.27404244 64.09404734 39.85202572 53.30085623 31.8984375 45.33203125 C24.19944777 38.95247969 15.10495802 35.25607345 5.06640625 35.2421875 C4.16212891 35.24089844 3.25785156 35.23960937 2.32617188 35.23828125 C1.39353516 35.24214844 0.46089844 35.24601563 -0.5 35.25 C-1.42876953 35.24613281 -2.35753906 35.24226562 -3.31445312 35.23828125 C-4.22001953 35.23957031 -5.12558594 35.24085938 -6.05859375 35.2421875 C-6.87513428 35.24331543 -7.6916748 35.24444336 -8.53295898 35.24560547 C-11.39720989 35.39212154 -14.23352632 35.90350439 -17.0625 36.375 Z " fill="#EC1C24" transform="translate(1478.0625,560.625)"/>
<path d="M0 0 C0 45.87 0 91.74 0 139 C-12.21 139 -24.42 139 -37 139 C-37.99 134.545 -37.99 134.545 -39 130 C-41.41763188 129.77499551 -41.41763188 129.77499551 -43.9375 132.6875 C-54.88188067 142.29221581 -68.99749887 143.81067567 -82.98046875 143.15234375 C-101.50146187 141.75520887 -117.19431044 133.08222438 -130 120 C-144.99588971 102.48503791 -147.42145214 80.12109148 -146 58 C-143.84431433 37.22660759 -133.07183191 19.33206757 -117.4375 5.875 C-86.59989931 -17.74325541 -34.066598 -17.033299 0 0 Z M-92.97265625 38.21875 C-101.74048571 49.68580509 -103.49434788 62.98968691 -102 77 C-100.12947735 87.01465216 -96.19912466 95.86057756 -88.1875 102.375 C-80.37036717 107.69478794 -72.35624483 109.05422477 -63 108 C-54.23940435 106.01379208 -46.05875608 101.58813411 -41 94 C-40.70833545 90.98563216 -40.70833545 90.98563216 -40.77294922 87.5090332 C-40.77265717 86.8551059 -40.77236511 86.20117859 -40.77206421 85.5274353 C-40.7734563 83.36841511 -40.78901143 81.20974107 -40.8046875 79.05078125 C-40.80841807 77.55291431 -40.81126483 76.05504493 -40.81326294 74.55717468 C-40.82089597 70.61649833 -40.84054155 66.67596962 -40.8626709 62.73535156 C-40.88313647 58.71356198 -40.89226618 54.69174853 -40.90234375 50.66992188 C-40.92378782 42.7798802 -40.95791971 34.88995847 -41 27 C-42.56237742 26.66959616 -44.12582825 26.34426624 -45.68969727 26.02099609 C-46.99548485 25.74840469 -46.99548485 25.74840469 -48.32765198 25.4703064 C-65.1961147 22.50162648 -81.23401466 25.01568382 -92.97265625 38.21875 Z " fill="#EC1C24" transform="translate(2000,572)"/>
<path d="M0 0 C15.18176589 12.74894054 21.22322861 29.04824395 25.28515625 48.00390625 C25.28515625 57.90390625 25.28515625 67.80390625 25.28515625 78.00390625 C-7.05484375 78.00390625 -39.39484375 78.00390625 -72.71484375 78.00390625 C-68.01178837 93.38212347 -68.01178837 93.38212347 -56.46875 102.75 C-33.12361656 113.37948629 -3.53518077 105.57479152 20.28515625 100.00390625 C20.28515625 109.24390625 20.28515625 118.48390625 20.28515625 128.00390625 C8.63569213 133.82863831 8.63569213 133.82863831 2.34765625 135.69140625 C1.6616333 135.89926758 0.97561035 136.10712891 0.26879883 136.32128906 C-25.87218414 144.04636119 -55.88082598 143.12872498 -80.52734375 130.87890625 C-97.15214203 121.2868762 -108.0505561 106.08123479 -113.02734375 87.62890625 C-118.60810675 64.31654949 -116.00565241 38.45161293 -103.82226562 17.73876953 C-100.98720991 13.29743225 -97.50535311 9.63103159 -93.71484375 6.00390625 C-93.0290625 5.29878906 -92.34328125 4.59367188 -91.63671875 3.8671875 C-67.77152176 -19.33508735 -25.95085079 -19.08040971 0 0 Z M-63.58984375 28.37890625 C-64.29109375 29.24515625 -64.99234375 30.11140625 -65.71484375 31.00390625 C-66.43671875 31.89078125 -67.15859375 32.77765625 -67.90234375 33.69140625 C-70.40728543 37.87786111 -70.40728543 37.87786111 -71.71484375 47.00390625 C-52.24484375 47.00390625 -32.77484375 47.00390625 -12.71484375 47.00390625 C-14.99416868 36.74694406 -17.9933818 30.98922328 -26.71484375 25.00390625 C-38.15310591 19.01933027 -53.65742739 20.17386665 -63.58984375 28.37890625 Z " fill="#EC1C24" transform="translate(1692.71484375,573.99609375)"/>
<path d="M0 0 C0 10.89 0 21.78 0 33 C-2.371875 32.401875 -4.74375 31.80375 -7.1875 31.1875 C-20.75654645 27.94229308 -34.46684224 25.77260625 -48.4375 25.625 C-49.21206543 25.61114258 -49.98663086 25.59728516 -50.78466797 25.58300781 C-55.61842026 25.6235648 -58.72002746 26.55983466 -63 29 C-63.66 29 -64.32 29 -65 29 C-65.95051172 31.85153516 -66.22656679 33.89899741 -66.3125 36.875 C-66.34988281 37.71804688 -66.38726563 38.56109375 -66.42578125 39.4296875 C-65.8451673 42.93467816 -64.48248743 44.49230966 -62 47 C-54.45249073 51.32871855 -45.37598276 52.97008481 -37 55 C-21.34764909 58.80092437 -6.54466148 62.91580441 3 77 C9.04294234 88.23367486 10.1467787 102.11732536 6.5 114.375 C2.80447158 123.84804468 -3.27422551 131.74507261 -12 137 C-12.71414063 137.43828125 -13.42828125 137.8765625 -14.1640625 138.328125 C-35.92998166 150.4122139 -62.7592927 148.66309924 -85.89868164 142.1472168 C-91.84880299 140.4174469 -97.26033248 138.45985751 -103 136 C-103 126.43 -103 116.86 -103 107 C-94.011527 108.12355912 -94.011527 108.12355912 -90.74609375 108.9375 C-90.03646484 109.11023438 -89.32683594 109.28296875 -88.59570312 109.4609375 C-87.52739258 109.72777344 -87.52739258 109.72777344 -86.4375 110 C-77.05734881 112.33026258 -68.23470327 113.18182049 -58.5625 113.1875 C-57.46873047 113.19974609 -56.37496094 113.21199219 -55.24804688 113.22460938 C-47.20611324 113.23913424 -39.72318499 112.94351838 -33 108 C-30.56477502 104.34716253 -30.44525633 101.25031548 -31 97 C-32.42388795 92.96759808 -34.55211255 91.82163546 -38.31640625 89.97265625 C-44.69106753 86.94647476 -51.10015593 85.09784594 -57.9375 83.4375 C-90.39893004 75.08988189 -90.39893004 75.08988189 -100 61 C-105.74966519 49.86766952 -106.7530494 36.95661755 -103 25 C-97.42745461 11.50540359 -90.4696124 3.27543792 -77 -3 C-51.38848886 -11.89549862 -25.38725966 -7.25350276 0 0 Z " fill="#EC1C24" transform="translate(1837,568)"/>
<path d="M0 0 C26.07 0 52.14 0 79 0 C79 13.2 79 26.4 79 40 C52.93 40 26.86 40 0 40 C0 26.8 0 13.6 0 0 Z " fill="#ED1C24" transform="translate(1326,614)"/>
<path d="M0 0 C1.32 0 2.64 0 4 0 C4 235.62 4 471.24 4 714 C2.68 714 1.36 714 0 714 C0 478.38 0 242.76 0 0 Z " fill="#E52227" transform="translate(903,0)"/>
<path d="M0 0 C0.66 0 1.32 0 2 0 C3.37719268 1.84937303 4.67483775 3.75811556 5.9375 5.6875 C16.92214372 22.02670586 29.82919077 36.60973026 49 43 C45.02387879 47.35255872 40.73165074 50.29452153 35.6875 53.3125 C34.89641846 53.78961426 34.10533691 54.26672852 33.2902832 54.75830078 C21.64023089 61.69415669 9.75735284 67.38638199 -3 72 C-4.542046 72.60319781 -6.08377113 73.20721739 -7.625 73.8125 C-11 75 -11 75 -14 75 C-14.1525351 67.17147884 -14.25737817 59.34334297 -14.32958984 51.51367188 C-14.35630869 48.85150272 -14.40058855 46.1912826 -14.45263672 43.52929688 C-14.52568584 39.69636633 -14.55951361 35.86475132 -14.5859375 32.03125 C-14.61690521 30.84760864 -14.64787292 29.66396729 -14.67977905 28.44445801 C-14.68291996 20.6781693 -13.312221 16.62817081 -8 11 C-5.90190682 8.04819994 -3.81331714 5.09031282 -1.734375 2.125 C-1.16203125 1.42375 -0.5896875 0.7225 0 0 Z " fill="#53622C" transform="translate(1458,167)"/>
<path d="M0 0 C0 15.18 0 30.36 0 46 C-10.20844322 44.7239446 -20.26917701 43.38199879 -30.375 41.5625 C-31.55449219 41.35818359 -32.73398438 41.15386719 -33.94921875 40.94335938 C-40.01902908 39.85970581 -45.87033016 38.56265293 -51.74755859 36.69848633 C-55.16640671 35.63829508 -58.63539426 34.85104926 -62.125 34.0625 C-63.5860913 33.72331809 -65.04702473 33.38345553 -66.5078125 33.04296875 C-67.24418945 32.87200684 -67.98056641 32.70104492 -68.73925781 32.52490234 C-69.48530273 32.35168457 -70.23134766 32.1784668 -71 32 C-71.7640918 31.82291504 -72.52818359 31.64583008 -73.31542969 31.46337891 C-75.54574991 30.94246619 -77.77305721 30.41014309 -80 29.875 C-80.68852051 29.71652588 -81.37704102 29.55805176 -82.08642578 29.39477539 C-83.74082964 28.992678 -85.37373274 28.50397345 -87 28 C-87.33 27.34 -87.66 26.68 -88 26 C-87.40687012 26.01047363 -86.81374023 26.02094727 -86.20263672 26.03173828 C-56.71102682 26.48264542 -31.54569119 20.86182265 -7 4 C-1.06489676 0 -1.06489676 0 0 0 Z " fill="#53632C" transform="translate(1415,213)"/>
<path d="M0 0 C4.49291444 0.42789661 8.85519548 0.90198947 13.25 1.9375 C26.06158168 4.87843244 38.22967024 5.2518435 51.3125 5.125 C53.1321565 5.11494396 54.95181841 5.10582278 56.77148438 5.09765625 C61.18112604 5.0758648 65.59050142 5.04148164 70 5 C70 8.63 70 12.26 70 16 C59.80103244 14.93892729 49.72238993 13.33874555 39.625 11.5625 C38.43745117 11.35729736 37.24990234 11.15209473 36.02636719 10.94067383 C29.98102788 9.85848868 24.14553739 8.57415639 18.29150391 6.71606445 C14.69176969 5.59119545 11.0378117 4.70561443 7.375 3.8125 C6.65699219 3.63525391 5.93898438 3.45800781 5.19921875 3.27539062 C3.46669341 2.84803437 1.73342823 2.42367911 0 2 C0 1.34 0 0.68 0 0 Z " fill="#5DA444" transform="translate(1345,243)"/>
<path d="M0 0 C5.27828825 0.50269412 10.29438225 1.23928124 15.44921875 2.45703125 C20.5884338 3.55098361 25.8020359 4.24480892 31 5 C31.33 6.32 31.66 7.64 32 9 C26.05774596 8.51293 20.65567179 7.47845449 14.9296875 5.83203125 C9.9857981 4.42796666 4.9900273 3.22791248 0 2 C0 1.34 0 0.68 0 0 Z " fill="#68913E" transform="translate(1345,243)"/>
<path d="M0 0 C2.97 0.33 5.94 0.66 9 1 C9 1.99 9 2.98 9 4 C4.545 3.01 4.545 3.01 0 2 C0 1.34 0 0.68 0 0 Z " fill="#668138" transform="translate(1345,243)"/>
</svg>
